<svg id="visual" viewBox="0 0 900 600" width="900" height="600" xmlns="http://www.w3.org/2000/svg" xmlns:xlink="http://www.w3.org/1999/xlink" version="1.1"><path d="M0 49L82 85L164 103L245 61L327 67L409 91L491 37L573 85L655 55L736 37L818 85L900 61L900 0L818 0L736 0L655 0L573 0L491 0L409 0L327 0L245 0L164 0L82 0L0 0Z" fill="#00cc8e"></path><path d="M0 121L82 211L164 175L245 181L327 193L409 211L491 115L573 241L655 121L736 115L818 181L900 175L900 59L818 83L736 35L655 53L573 83L491 35L409 89L327 65L245 59L164 101L82 83L0 47Z" fill="#00b98a"></path><path d="M0 325L82 319L164 325L245 277L327 325L409 373L491 379L573 415L655 301L736 325L818 355L900 295L900 173L818 179L736 113L655 119L573 239L491 113L409 209L327 191L245 179L164 173L82 209L0 119Z" fill="#00a784"></path><path d="M0 487L82 505L164 511L245 499L327 517L409 481L491 487L573 523L655 511L736 517L818 517L900 553L900 293L818 353L736 323L655 299L573 413L491 377L409 371L327 323L245 275L164 323L82 317L0 323Z" fill="#00957c"></path><path d="M0 601L82 601L164 601L245 601L327 601L409 601L491 601L573 601L655 601L736 601L818 601L900 601L900 551L818 515L736 515L655 509L573 521L491 485L409 479L327 515L245 497L164 509L82 503L0 485Z" fill="#038373"></path></svg>